<?xml version="1.0" encoding="utf-8"?>
<!-- Generator: Adobe Illustrator 16.0.0, SVG Export Plug-In . SVG Version: 6.00 Build 0)  -->
<!DOCTYPE svg PUBLIC "-//W3C//DTD SVG 1.1//EN" "http://www.w3.org/Graphics/SVG/1.1/DTD/svg11.dtd">
<svg version="1.1" id="Layer_1" xmlns="http://www.w3.org/2000/svg" xmlns:xlink="http://www.w3.org/1999/xlink" x="0px" y="0px"
	 width="1366px" height="768px" viewBox="0 0 1366 768" enable-background="new 0 0 1366 768" xml:space="preserve">
<linearGradient id="SVGID_1_" gradientUnits="userSpaceOnUse" x1="55.9888" y1="652.4111" x2="1120.92" y2="146.0998">
	<stop  offset="0" style="stop-color:#7CC7C2"/>
	<stop  offset="1" style="stop-color:#1DB7EB"/>
</linearGradient>
<path fill="url(#SVGID_1_)" d="M85.97,700.146c20.339,0,41.759,3.438,60.583,11.438c14.37,6.104,30.551,22.887,47.328,16.272
	c15.641-6.169,26.861-17.858,43.873-23.083c33.418-10.268,66.957-12.495,100.59-1.443c14.798,4.863,27.138,9.526,39.955,18.467
	c14.934,10.418,19.78,10.389,34.848,0.249c25.084-16.882,54.181-25.036,84.324-26.239c15.9-0.636,31.032,1.811,46.476,5.456
	c14.983,3.535,27.103,13.904,41.404,17.437c15.192,3.751,26.441-8.237,39.956-13.302c13.852-5.191,30.144-8.397,44.872-9.471
	c29.356-2.136,61.657,3.757,87.821,17.558c11.981,6.319,21.657,20.213,36.316,16.723c13.567-3.229,25.748-16.177,39.784-20.643
	c31.106-9.896,64.861-11.736,96.488-3.054c13.499,3.703,27.59,8.874,39.342,16.581c9.229,6.054,19.075,17.956,31.051,18.359
	c9.76,0.326,25.664-15.491,34.718-20.284c30.09-15.921,63.272-24.01,97.295-19.932c23.757,2.848,48.146,11.145,68.361,24.016
	c15.024,9.565,14.6,8.583,30.008-0.944c25.676-15.875,56.153-24.16,86.282-24.16c17.193,0,33.771,2.634,49.354,7.514
	c0-121.19,0-388.045,0-451.659c0-83-179-146-375-146S684,0,684,0H1v3v720.689C25.819,708.746,54.889,700.146,85.97,700.146z"/>
</svg>
